<svg width="24" height="24" viewBox="0 0 24 24" fill="none" xmlns="http://www.w3.org/2000/svg">
<path fill-rule="evenodd" clip-rule="evenodd" d="M10.7015 5.02044L8.88944 4.21506C7.67346 3.67459 6.67806 3.23216 5.87304 3.0084C5.04054 2.777 4.21608 2.72192 3.47542 3.20326C2.73475 3.68459 2.45025 4.46036 2.32359 5.3151C2.20112 6.1416 2.20114 7.23087 2.20117 8.56152V14.6343C2.20115 15.2926 2.20113 15.8531 2.25353 16.3121C2.30942 16.8016 2.43178 17.2558 2.7297 17.6692C3.02762 18.0825 3.41981 18.3422 3.86659 18.5501C4.28546 18.7449 4.81715 18.9221 5.44168 19.1303L10.5786 20.8427C11.112 21.021 11.5438 21.1653 12.0012 21.1653C12.4586 21.1653 12.8904 21.021 13.4238 20.8427L18.5607 19.1303C19.1852 18.9221 19.7169 18.7449 20.1358 18.5501C20.5825 18.3422 20.9747 18.0825 21.2727 17.6692C21.5706 17.2558 21.6929 16.8016 21.7488 16.3121C21.8012 15.8531 21.8012 15.2926 21.8012 14.6344V8.56153C21.8012 7.23091 21.8012 6.14158 21.6788 5.3151C21.5521 4.46036 21.2676 3.68459 20.5269 3.20326C19.7863 2.72192 18.9618 2.777 18.1293 3.0084C17.3243 3.23216 16.3289 3.67458 15.113 4.21504L13.3008 5.02044C12.4363 5.40466 12.2162 5.48487 12.0012 5.48487C11.7861 5.48487 11.566 5.40466 10.7015 5.02044ZM5.25038 8.19264C5.40553 7.77895 5.86666 7.56935 6.28036 7.7245L10.28 9.2245C10.6937 9.37965 10.9033 9.84078 10.7482 10.2545C10.593 10.6682 10.1319 10.8778 9.71819 10.7226L5.71852 9.22261C5.30483 9.06747 5.09523 8.60633 5.25038 8.19264ZM18.3874 9.22261C18.8011 9.06747 19.0107 8.60633 18.8556 8.19264C18.7004 7.77895 18.2393 7.56935 17.8256 7.7245L13.8259 9.2245C13.4122 9.37965 13.2027 9.84078 13.3578 10.2545C13.5129 10.6682 13.9741 10.8778 14.3878 10.7226L18.3874 9.22261ZM5.25038 13.1926C5.40553 12.7789 5.86666 12.5694 6.28036 12.7245L10.28 14.2245C10.6937 14.3796 10.9033 14.8408 10.7482 15.2545C10.593 15.6682 10.1319 15.8778 9.71819 15.7226L5.71852 14.2226C5.30483 14.0675 5.09523 13.6063 5.25038 13.1926ZM18.3874 14.2226C18.8011 14.0675 19.0107 13.6063 18.8556 13.1926C18.7004 12.7789 18.2393 12.5694 17.8256 12.7245L13.8259 14.2245C13.4122 14.3796 13.2027 14.8408 13.3578 15.2545C13.5129 15.6682 13.9741 15.8778 14.3878 15.7226L18.3874 14.2226Z" fill="#104bd5" class="my-path"/>
</svg>