<svg width="24" height="24" viewBox="0 0 24 24" fill="none" xmlns="http://www.w3.org/2000/svg">
<path fill-rule="evenodd" clip-rule="evenodd" d="M14.0583 2.19971H9.94209C8.57729 2.19969 7.47209 2.19967 6.60178 2.31668C5.69613 2.43844 4.92595 2.69995 4.31319 3.3127C3.70044 3.92546 3.43893 4.69564 3.31717 5.6013C3.20016 6.47161 3.20017 7.57677 3.2002 8.94158V20.1997H3.0002C2.55837 20.1997 2.2002 20.5579 2.2002 20.9997C2.2002 21.4415 2.55837 21.7997 3.0002 21.7997H8.2002L8.20026 17.973C8.20026 17.5298 8.20026 17.1572 8.22117 16.8509C8.24298 16.5312 8.29021 16.2256 8.41345 15.9281C8.69764 15.2421 9.24269 14.697 9.92872 14.4129C10.2262 14.2896 10.5318 14.2424 10.8515 14.2206C11.1578 14.1997 11.5303 14.1997 11.9735 14.1997H12.027C12.4702 14.1997 12.8428 14.1997 13.1491 14.2206C13.4687 14.2424 13.7743 14.2896 14.0718 14.4128C14.7579 14.697 15.303 15.2421 15.5872 15.9282C15.7104 16.2257 15.7576 16.5313 15.7794 16.8509C15.8003 17.1573 15.8003 17.5298 15.8003 17.9731V21.7997L21.0002 21.7997C21.442 21.7997 21.8002 21.4415 21.8002 20.9997C21.8002 20.5579 21.442 20.1997 21.0002 20.1997H20.8002V8.94159C20.8002 7.57683 20.8002 6.47159 20.6832 5.6013C20.5615 4.69564 20.3 3.92546 19.6872 3.3127C19.0744 2.69995 18.3043 2.43844 17.3986 2.31668C16.5283 2.19967 15.4231 2.19969 14.0583 2.19971ZM7.2002 6.99971C7.2002 6.55788 7.55837 6.19971 8.0002 6.19971H10.0002C10.442 6.19971 10.8002 6.55788 10.8002 6.99971C10.8002 7.44154 10.442 7.79971 10.0002 7.79971H8.0002C7.55837 7.79971 7.2002 7.44154 7.2002 6.99971ZM14.0002 6.19971C13.5584 6.19971 13.2002 6.55788 13.2002 6.99971C13.2002 7.44154 13.5584 7.79971 14.0002 7.79971H16.0002C16.442 7.79971 16.8002 7.44154 16.8002 6.99971C16.8002 6.55788 16.442 6.19971 16.0002 6.19971H14.0002ZM7.2002 10.9997C7.2002 10.5579 7.55837 10.1997 8.0002 10.1997H10.0002C10.442 10.1997 10.8002 10.5579 10.8002 10.9997C10.8002 11.4415 10.442 11.7997 10.0002 11.7997H8.0002C7.55837 11.7997 7.2002 11.4415 7.2002 10.9997ZM14.0002 10.1997C13.5584 10.1997 13.2002 10.5579 13.2002 10.9997C13.2002 11.4415 13.5584 11.7997 14.0002 11.7997H16.0002C16.442 11.7997 16.8002 11.4415 16.8002 10.9997C16.8002 10.5579 16.442 10.1997 16.0002 10.1997H14.0002Z" fill="#104bd5" class="my-path"/>
<path d="M14.2003 21.7997V17.9997C14.2003 17.5228 14.1999 17.2052 14.1831 16.9599C14.1669 16.7217 14.138 16.6105 14.109 16.5405C13.9872 16.2465 13.7536 16.0128 13.4595 15.8911C13.3895 15.862 13.2783 15.8331 13.0402 15.8169C12.7948 15.8001 12.4772 15.7997 12.0003 15.7997C11.5234 15.7997 11.2058 15.8001 10.9604 15.8169C10.7222 15.8331 10.6111 15.862 10.541 15.8911C10.247 16.0128 10.0134 16.2464 9.89164 16.5405C9.86262 16.6105 9.83371 16.7216 9.81745 16.9598C9.80071 17.2052 9.80027 17.5228 9.80026 17.9997L9.8002 21.7997H14.2003Z" fill="#104bd5" class="my-path"/>
</svg>