<svg width="24" height="24" viewBox="0 0 24 24" fill="none" xmlns="http://www.w3.org/2000/svg">
<path d="M10.8301 2.48259C11.2033 2.31446 11.577 2.2002 11.9993 2.2002C12.4216 2.2002 12.7953 2.31446 13.1685 2.48259C13.5179 2.64 13.9159 2.86839 14.3809 3.13526L16.4086 4.29875L18.4065 5.48817C18.8674 5.76253 19.2617 5.99725 19.5709 6.22477C19.6748 6.30118 19.7739 6.38016 19.8675 6.46393C19.8195 6.48069 19.7725 6.50229 19.727 6.52889C18.2576 7.38774 16.2217 8.5997 14.5551 9.59582C13.7214 10.0941 12.9793 10.5388 12.4457 10.859L11.9969 11.1284L4.26762 6.53196C4.2226 6.50519 4.17601 6.48334 4.12849 6.46626C4.22286 6.38162 4.32286 6.30189 4.42766 6.22477C4.73687 5.99724 5.13118 5.76253 5.59213 5.48816L7.60108 4.29229L9.61768 3.13526C10.0827 2.86839 10.4807 2.64 10.8301 2.48259Z" fill="#104bd5" class="my-path"/>
<path d="M3.33393 7.82356C3.30263 7.96582 3.28103 8.11118 3.26552 8.2603C3.22559 8.64418 3.22197 9.10634 3.21773 9.64827L3.19922 11.9939L3.21773 14.3521C3.22197 14.8941 3.22559 15.3562 3.26552 15.7401C3.30808 16.1493 3.3965 16.5302 3.6054 16.8965C3.81459 17.2633 4.09722 17.5325 4.42766 17.7756C4.73685 18.0031 5.13113 18.2378 5.59204 18.5122L7.59003 19.7016L9.61766 20.8651C10.0826 21.132 10.4807 21.3604 10.8301 21.5178C10.953 21.5732 11.0759 21.6227 11.2006 21.6642C11.1995 21.6471 11.1989 21.6298 11.1989 21.6124V12.5154L3.44981 7.90717C3.40806 7.88234 3.36939 7.8543 3.33393 7.82356Z" fill="#104bd5" class="my-path"/>
<path d="M12.7973 21.6644C12.9222 21.6229 13.0454 21.5733 13.1685 21.5178C13.5178 21.3604 13.9158 21.132 14.3808 20.8652L16.3975 19.7081L18.4065 18.5122C18.8674 18.2379 19.2618 18.0031 19.5709 17.7756C19.9014 17.5325 20.184 17.2633 20.3932 16.8965C20.6021 16.5302 20.6905 16.1493 20.7331 15.7401C20.773 15.3562 20.7766 14.8941 20.7808 14.3522L20.7994 12.0065L20.7808 9.64827C20.7766 9.10637 20.773 8.64416 20.7331 8.2603C20.7173 8.10881 20.6953 7.96121 20.6632 7.81679C20.6242 7.8515 20.5812 7.88288 20.5344 7.91024C19.0723 8.7648 17.0423 9.97326 15.3759 10.9692C14.5432 11.4669 13.8019 11.9112 13.2689 12.231L12.799 12.5131V21.6124C12.799 21.6299 12.7984 21.6472 12.7973 21.6644Z" fill="#104bd5" class="my-path"/>
</svg>