<svg width="24" height="24" viewBox="0 0 24 24" fill="none" xmlns="http://www.w3.org/2000/svg">
<path fill-rule="evenodd" clip-rule="evenodd" d="M10.3267 3.86728C10.1647 3.81066 9.97019 3.80008 9.1984 3.80008H8.89745C7.51185 3.80008 6.55033 3.80167 5.8235 3.89614C5.11808 3.98783 4.75024 4.15475 4.48835 4.40278C4.45943 4.43017 4.43126 4.45834 4.40387 4.48726C4.15584 4.74915 3.98892 5.11699 3.89723 5.82241C3.80276 6.54924 3.80117 7.51077 3.80117 8.89636V17.0001C3.80117 17.4419 3.443 17.8001 3.00117 17.8001C2.55935 17.8001 2.20117 17.4419 2.20117 17.0001L2.20117 8.84041C2.20115 7.52414 2.20113 6.45821 2.31058 5.61618C2.42436 4.74084 2.66837 3.9929 3.2422 3.38703C3.28951 3.33708 3.33817 3.28842 3.38812 3.24111C3.99399 2.66728 4.74193 2.42327 5.61727 2.30949C6.4593 2.20004 7.52523 2.20006 8.8415 2.20008L9.1984 2.20008C9.2357 2.20008 9.27255 2.20005 9.30899 2.20002C9.91463 2.19946 10.4029 2.19901 10.8546 2.35688C11.1286 2.45263 11.386 2.59039 11.6176 2.76522C11.9995 3.05348 12.27 3.46004 12.6055 3.96427C12.6257 3.9946 12.6461 4.02529 12.6668 4.05632C13.0949 4.69849 13.2116 4.8545 13.3486 4.95788C13.4479 5.03281 13.5582 5.09185 13.6756 5.13289C13.8376 5.18951 14.0322 5.20008 14.8039 5.20008L17.0561 5.20008C17.952 5.20005 18.7042 5.20002 19.3023 5.28044C19.9357 5.36559 20.5148 5.55388 20.9811 6.02018C21.4474 6.48649 21.6357 7.0656 21.7208 7.69894C21.8012 8.29709 21.8012 9.0492 21.8012 9.94518V10.5001C21.8012 10.9419 21.443 11.3001 21.0012 11.3001C20.5593 11.3001 20.2012 10.9419 20.2012 10.5001V10.0001C20.2012 9.03466 20.1995 8.39107 20.1351 7.91214C20.0738 7.45622 19.9692 7.27103 19.8497 7.15156C19.7302 7.03208 19.545 6.92747 19.0891 6.86617C18.6102 6.80178 17.9666 6.80008 17.0012 6.80008H14.8039C14.7666 6.80008 14.7298 6.80012 14.6934 6.80015C14.0877 6.80071 13.5994 6.80116 13.1477 6.64329C12.8737 6.54754 12.6163 6.40978 12.3847 6.23495C12.0028 5.94669 11.7323 5.54013 11.3968 5.0359C11.3766 5.00557 11.3562 4.97488 11.3355 4.94384C10.9074 4.30168 10.7907 4.14567 10.6537 4.04229C10.5545 3.96736 10.4441 3.90832 10.3267 3.86728Z" fill="#104bd5" class="my-path"/>
<path d="M20.6047 12.3015C20.121 11.6677 19.424 11.4185 18.656 11.3069C17.9216 11.2002 16.9711 11.2002 15.8216 11.2003H9.99405C9.30169 11.2003 8.71334 11.2002 8.23357 11.2567C7.72221 11.317 7.24896 11.449 6.82517 11.7711C6.40139 12.0932 6.1475 12.5139 5.95261 12.9905C5.76975 13.4376 5.61231 14.0045 5.42703 14.6716L5.12011 15.7765C4.81125 16.8883 4.55592 17.8074 4.46197 18.5458C4.36374 19.3178 4.4177 20.0582 4.90147 20.6946C5.38525 21.3311 6.08415 21.5813 6.85432 21.6932C7.59094 21.8003 8.54482 21.8003 9.69872 21.8003H15.5307C16.2258 21.8003 16.8163 21.8003 17.2977 21.7435C17.8108 21.6829 18.2856 21.5501 18.7101 21.2261C19.1347 20.902 19.3881 20.4791 19.5819 20.0002C19.7637 19.5508 19.9194 18.9813 20.1028 18.3108L20.405 17.2057C20.7083 16.0969 20.9591 15.1801 21.0499 14.4436C21.1449 13.6733 21.0884 12.9353 20.6047 12.3015Z" fill="#104bd5" class="my-path"/>
</svg>