<svg width="24" height="24" viewBox="0 0 24 24" fill="none" xmlns="http://www.w3.org/2000/svg">
<path d="M6.54165 2.19995H6.4607C5.79297 2.19993 5.23202 2.19992 4.77713 2.24619C4.29971 2.29476 3.85116 2.40084 3.44558 2.67184C3.13984 2.87612 2.87734 3.13862 2.67306 3.44436C2.40206 3.84994 2.29598 4.29849 2.24741 4.77591C2.20114 5.2308 2.20115 5.79172 2.20117 6.45945V6.54043C2.20115 7.20816 2.20114 7.76911 2.24741 8.22399C2.29598 8.70142 2.40206 9.14997 2.67306 9.55555C2.87734 9.86128 3.13984 10.1238 3.44558 10.3281C3.85116 10.5991 4.29971 10.7051 4.77713 10.7537C5.23203 10.8 5.79296 10.8 6.4607 10.8H6.54165C7.20939 10.8 7.77032 10.8 8.22521 10.7537C8.70264 10.7051 9.15119 10.5991 9.55677 10.3281C9.8625 10.1238 10.125 9.86128 10.3293 9.55555C10.6003 9.14997 10.7064 8.70142 10.7549 8.22399C10.8012 7.7691 10.8012 7.20817 10.8012 6.54043V6.45948C10.8012 5.79174 10.8012 5.23081 10.7549 4.77591C10.7064 4.29849 10.6003 3.84994 10.3293 3.44436C10.125 3.13862 9.8625 2.87612 9.55677 2.67184C9.15119 2.40084 8.70264 2.29476 8.22521 2.24619C7.77033 2.19992 7.20938 2.19993 6.54165 2.19995Z" fill="#104bd5" class="my-path"/>
<path d="M6.54165 13.2H6.4607C5.79297 13.1999 5.23202 13.1999 4.77713 13.2462C4.29971 13.2948 3.85116 13.4008 3.44558 13.6718C3.13985 13.8761 2.87734 14.1386 2.67306 14.4444C2.40206 14.8499 2.29598 15.2985 2.24741 15.7759C2.20114 16.2308 2.20116 16.7917 2.20117 17.4594V17.5404C2.20116 18.2081 2.20114 18.7691 2.24741 19.224C2.29598 19.7014 2.40206 20.15 2.67306 20.5556C2.87734 20.8613 3.13985 21.1238 3.44558 21.3281C3.85116 21.5991 4.29971 21.7051 4.77713 21.7537C5.23202 21.8 5.79293 21.8 6.46066 21.8H6.54165C7.20937 21.8 7.77033 21.8 8.22521 21.7537C8.70264 21.7051 9.15119 21.5991 9.55677 21.3281C9.8625 21.1238 10.125 20.8613 10.3293 20.5556C10.6003 20.15 10.7064 19.7014 10.7549 19.224C10.8012 18.7691 10.8012 18.2082 10.8012 17.5405V17.4595C10.8012 16.7918 10.8012 16.2308 10.7549 15.7759C10.7064 15.2985 10.6003 14.8499 10.3293 14.4444C10.125 14.1386 9.8625 13.8761 9.55677 13.6718C9.15119 13.4008 8.70264 13.2948 8.22521 13.2462C7.77033 13.1999 7.20938 13.1999 6.54165 13.2Z" fill="#104bd5" class="my-path"/>
<path d="M17.5416 13.2H17.4607C16.793 13.1999 16.232 13.1999 15.7771 13.2462C15.2997 13.2948 14.8512 13.4008 14.4456 13.6718C14.1398 13.8761 13.8773 14.1386 13.6731 14.4444C13.4021 14.8499 13.296 15.2985 13.2474 15.7759C13.2011 16.2308 13.2012 16.7917 13.2012 17.4595V17.5404C13.2012 18.2082 13.2011 18.7691 13.2474 19.224C13.296 19.7014 13.4021 20.15 13.6731 20.5556C13.8773 20.8613 14.1398 21.1238 14.4456 21.3281C14.8512 21.5991 15.2997 21.7051 15.7771 21.7537C16.232 21.8 16.7929 21.8 17.4607 21.8H17.5416C18.2094 21.8 18.7703 21.8 19.2252 21.7537C19.7026 21.7051 20.1512 21.5991 20.5568 21.3281C20.8625 21.1238 21.125 20.8613 21.3293 20.5556C21.6003 20.15 21.7064 19.7014 21.7549 19.224C21.8012 18.7691 21.8012 18.2082 21.8012 17.5405V17.4595C21.8012 16.7918 21.8012 16.2308 21.7549 15.7759C21.7064 15.2985 21.6003 14.8499 21.3293 14.4444C21.125 14.1386 20.8625 13.8761 20.5568 13.6718C20.1512 13.4008 19.7026 13.2948 19.2252 13.2462C18.7703 13.1999 18.2094 13.1999 17.5416 13.2Z" fill="#104bd5" class="my-path"/>
<path d="M16.7012 8.5002C16.7012 8.94202 17.0593 9.3002 17.5012 9.3002C17.943 9.3002 18.3012 8.94202 18.3012 8.5002V6.8001H20.0012C20.443 6.8001 20.8012 6.44193 20.8012 6.0001C20.8012 5.55827 20.443 5.2001 20.0012 5.2001H18.3012V3.5002C18.3012 3.05837 17.943 2.7002 17.5012 2.7002C17.0593 2.7002 16.7012 3.05837 16.7012 3.5002V5.2001H15.0012C14.5593 5.2001 14.2012 5.55827 14.2012 6.0001C14.2012 6.44193 14.5593 6.8001 15.0012 6.8001H16.7012V8.5002Z" fill="#104bd5" class="my-path"/>
</svg>