<svg width="24" height="24" viewBox="0 0 24 24" fill="none" xmlns="http://www.w3.org/2000/svg">
<path fill-rule="evenodd" clip-rule="evenodd" d="M20.7993 9.83355V17.055C20.7993 17.951 20.7993 18.7031 20.7189 19.3012C20.6338 19.9346 20.4455 20.5137 19.9792 20.98C19.5129 21.4463 18.9338 21.6346 18.3004 21.7197C17.7023 21.8001 16.9501 21.8001 16.0542 21.8001H7.94437C7.04839 21.8001 6.29628 21.8001 5.69813 21.7197C5.06479 21.6346 4.48568 21.4463 4.01937 20.98C3.55306 20.5137 3.36478 19.9346 3.27963 19.3012C3.19921 18.7031 3.19924 17.9509 3.19927 17.055L3.19927 9.89866L2.45648 10.4094C2.09242 10.6598 1.59434 10.5676 1.34401 10.2035C1.09367 9.83944 1.18586 9.34137 1.54992 9.09103L3.55593 7.71164L9.28615 3.89744L9.31617 3.87682C9.83447 3.52072 10.2765 3.21703 10.6675 3.00772C11.0847 2.7843 11.5098 2.63062 11.9993 2.63062C12.4888 2.63062 12.9138 2.78431 13.3311 3.00772C13.7221 3.21703 14.1641 3.5207 14.6824 3.8768L14.7124 3.89745L20.4354 7.70698L22.4672 8.99752C22.8402 9.23441 22.9505 9.72879 22.7136 10.1017C22.4767 10.4747 21.9823 10.585 21.6094 10.3481L20.7993 9.83355ZM12.7992 13.125C12.7992 12.6831 12.441 12.325 11.9992 12.325C11.5574 12.325 11.1992 12.6831 11.1992 13.125V16.5C11.1992 16.9418 11.5574 17.3 11.9992 17.3C12.441 17.3 12.7992 16.9418 12.7992 16.5V13.125Z" fill="#104bd5" class="my-path"/>
</svg>