<svg width="24" height="24" viewBox="0 0 24 24" fill="none" xmlns="http://www.w3.org/2000/svg">
<path fill-rule="evenodd" clip-rule="evenodd" d="M20.9992 7.19971C21.441 7.19971 21.7992 7.55788 21.7992 7.99971V9.99971C21.7992 10.4415 21.441 10.7997 20.9992 10.7997C20.5574 10.7997 20.1992 10.4415 20.1992 9.99971V7.99971C20.1992 7.55788 20.5574 7.19971 20.9992 7.19971Z" fill="#104bd5" class="my-path"/>
<path fill-rule="evenodd" clip-rule="evenodd" d="M20.9992 13.1997C21.441 13.1997 21.7992 13.5579 21.7992 13.9997V15.9997C21.7992 16.4415 21.441 16.7997 20.9992 16.7997C20.5574 16.7997 20.1992 16.4415 20.1992 15.9997V13.9997C20.1992 13.5579 20.5574 13.1997 20.9992 13.1997Z" fill="#104bd5" class="my-path"/>
<path d="M12.0031 8.79971C11.6165 8.79971 11.3031 9.11311 11.3031 9.49971C11.3031 9.88631 11.6165 10.1997 12.0031 10.1997C12.3897 10.1997 12.7031 9.88631 12.7031 9.49971C12.7031 9.11311 12.3897 8.79971 12.0031 8.79971Z" fill="#104bd5" class="my-path"/>
<path fill-rule="evenodd" clip-rule="evenodd" d="M8.94824 2.19971H15.058C15.954 2.19968 16.7061 2.19965 17.3043 2.28007C17.9376 2.36522 18.5167 2.5535 18.983 3.01981C19.4493 3.48612 19.6376 4.06523 19.7228 4.69857C19.8032 5.29672 19.8032 6.04885 19.8031 6.94484V17.0546C19.8032 17.9506 19.8032 18.7027 19.7228 19.3009C19.6376 19.9342 19.4493 20.5133 18.983 20.9796C18.5167 21.4459 17.9376 21.6342 17.3043 21.7194C16.7061 21.7998 15.954 21.7997 15.058 21.7997H8.94823C8.05225 21.7997 7.30014 21.7998 6.70199 21.7194C6.06865 21.6342 5.48954 21.4459 5.02323 20.9796C4.55692 20.5133 4.36864 19.9342 4.28349 19.3009C4.20307 18.7027 4.20309 17.9506 4.20313 17.0546V16.7997H3.00313C2.5613 16.7997 2.20312 16.4415 2.20312 15.9997C2.20312 15.5579 2.5613 15.1997 3.00313 15.1997H4.20313V12.7997H3.00313C2.5613 12.7997 2.20312 12.4415 2.20312 11.9997C2.20312 11.5579 2.5613 11.1997 3.00313 11.1997H4.20313V8.79971H3.00313C2.5613 8.79971 2.20312 8.44154 2.20312 7.99971C2.20312 7.55788 2.5613 7.19971 3.00313 7.19971H4.20313V6.94483C4.20309 6.04886 4.20307 5.29671 4.28349 4.69857C4.36864 4.06523 4.55692 3.48612 5.02323 3.01981C5.48954 2.5535 6.06865 2.36522 6.70199 2.28007C7.30012 2.19965 8.05229 2.19968 8.94824 2.19971ZM9.70312 9.49971C9.70312 8.22945 10.7329 7.19971 12.0031 7.19971C13.2734 7.19971 14.3031 8.22945 14.3031 9.49971C14.3031 10.77 13.2734 11.7997 12.0031 11.7997C10.7329 11.7997 9.70312 10.77 9.70312 9.49971ZM10.7174 12.9653C9.32881 12.9653 8.20312 14.091 8.20312 15.4796V15.9997C8.20312 16.4415 8.5613 16.7997 9.00313 16.7997C9.44495 16.7997 9.80312 16.4415 9.80312 15.9997V15.4796C9.80312 14.9747 10.2125 14.5653 10.7174 14.5653H13.2888C13.7938 14.5653 14.2031 14.9747 14.2031 15.4796V15.9997C14.2031 16.4415 14.5613 16.7997 15.0031 16.7997C15.445 16.7997 15.8031 16.4415 15.8031 15.9997V15.4796C15.8031 14.091 14.6774 12.9653 13.2888 12.9653H10.7174Z" fill="#104bd5" class="my-path"/>
</svg>